<svg width="43" height="43" viewBox="0 0 43 43" fill="none" xmlns="http://www.w3.org/2000/svg">
<g clip-path="url(#clip0_58_64)">
<path d="M32.6667 0.333984H10C4.47715 0.333984 0 4.81114 0 10.334V33.0007C0 38.5235 4.47715 43.0007 10 43.0007H32.6667C38.1895 43.0007 42.6667 38.5235 42.6667 33.0007V10.334C42.6667 4.81114 38.1895 0.333984 32.6667 0.333984Z" fill="url(#paint0_radial_58_64)"/>
<path d="M32.6667 0.333984H10C4.47715 0.333984 0 4.81114 0 10.334V33.0007C0 38.5235 4.47715 43.0007 10 43.0007H32.6667C38.1895 43.0007 42.6667 38.5235 42.6667 33.0007V10.334C42.6667 4.81114 38.1895 0.333984 32.6667 0.333984Z" fill="url(#paint1_radial_58_64)"/>
<path d="M21.3347 5.00098C16.8083 5.00098 16.2402 5.02081 14.4625 5.10164C12.6882 5.18298 11.477 5.46381 10.4173 5.87598C9.321 6.30164 8.39117 6.87114 7.46484 7.79781C6.53767 8.72431 5.96817 9.65414 5.54117 10.75C5.12784 11.81 4.84667 13.0216 4.76684 14.7951C4.68734 16.573 4.6665 17.1413 4.6665 21.6678C4.6665 26.1943 4.6865 26.7606 4.76717 28.5383C4.84884 30.3126 5.12967 31.5238 5.5415 32.5835C5.9675 33.6798 6.537 34.6096 7.46367 35.536C8.38984 36.4631 9.31967 37.034 10.4152 37.4596C11.4757 37.8718 12.687 38.1526 14.461 38.234C16.2388 38.3148 16.8065 38.3346 21.3327 38.3346C25.8595 38.3346 26.4258 38.3148 28.2035 38.234C29.9778 38.1526 31.1903 37.8718 32.2508 37.4596C33.3467 37.034 34.2752 36.4631 35.2012 35.536C36.1283 34.6096 36.6977 33.6798 37.1248 32.584C37.5345 31.5238 37.8158 30.3123 37.8992 28.5386C37.979 26.761 37.9998 26.1943 37.9998 21.6678C37.9998 17.1413 37.979 16.5733 37.8992 14.7955C37.8158 13.0211 37.5345 11.8101 37.1248 10.7505C36.6977 9.65414 36.1283 8.72431 35.2012 7.79781C34.2742 6.87081 33.347 6.30131 32.2498 5.87614C31.1873 5.46381 29.9755 5.18281 28.2012 5.10164C26.4233 5.02081 25.8573 5.00098 21.3295 5.00098H21.3347ZM19.8395 8.00448C20.2833 8.00381 20.7785 8.00448 21.3347 8.00448C25.7848 8.00448 26.3122 8.02048 28.0695 8.10031C29.6945 8.17464 30.5765 8.44614 31.164 8.67431C31.9418 8.97631 32.4963 9.33748 33.0793 9.92098C33.6627 10.5043 34.0237 11.0598 34.3265 11.8376C34.5547 12.4243 34.8265 13.3063 34.9005 14.9313C34.9803 16.6883 34.9977 17.216 34.9977 21.664C34.9977 26.112 34.9803 26.6398 34.9005 28.3966C34.8262 30.0216 34.5547 30.9036 34.3265 31.4905C34.0245 32.2683 33.6627 32.8221 33.0793 33.4051C32.496 33.9885 31.9422 34.3495 31.164 34.6516C30.5772 34.8808 29.6945 35.1516 28.0695 35.226C26.3125 35.3058 25.7848 35.3231 21.3347 35.3231C16.8843 35.3231 16.3568 35.3058 14.6 35.226C12.975 35.151 12.093 34.8795 11.505 34.6513C10.7273 34.3491 10.1717 33.9881 9.58834 33.4048C9.005 32.8215 8.644 32.2673 8.34117 31.4891C8.113 30.9023 7.84117 30.0203 7.76717 28.3953C7.68734 26.6383 7.67134 26.1106 7.67134 21.6598C7.67134 17.209 7.68734 16.6841 7.76717 14.9271C7.8415 13.3021 8.113 12.4201 8.34117 11.8326C8.64334 11.0548 9.005 10.4993 9.5885 9.91598C10.172 9.33264 10.7273 8.97148 11.5052 8.66881C12.0927 8.43964 12.975 8.16881 14.6 8.09414C16.1375 8.02464 16.7333 8.00381 19.8395 8.00031V8.00448ZM30.2313 10.7718C29.1272 10.7718 28.2313 11.6668 28.2313 12.7711C28.2313 13.8753 29.1272 14.7711 30.2313 14.7711C31.3355 14.7711 32.2313 13.8753 32.2313 12.7711C32.2313 11.667 31.3355 10.7711 30.2313 10.7711V10.7718ZM21.3347 13.1086C16.608 13.1086 12.7757 16.941 12.7757 21.6678C12.7757 26.3946 16.608 30.2251 21.3347 30.2251C26.0615 30.2251 29.8925 26.3946 29.8925 21.6678C29.8925 16.9411 26.0612 13.1086 21.3343 13.1086H21.3347ZM21.3347 16.1121C24.4028 16.1121 26.8903 18.5993 26.8903 21.6678C26.8903 24.736 24.4028 27.2235 21.3347 27.2235C18.2665 27.2235 15.7792 24.736 15.7792 21.6678C15.7792 18.5993 18.2663 16.1121 21.3347 16.1121Z" fill="white"/>
</g>
<defs>
<radialGradient id="paint0_radial_58_64" cx="0" cy="0" r="1" gradientUnits="userSpaceOnUse" gradientTransform="translate(11.3333 46.2868) rotate(-90) scale(42.2858 39.3292)">
<stop stop-color="#FFDD55"/>
<stop offset="0.1" stop-color="#FFDD55"/>
<stop offset="0.5" stop-color="#FF543E"/>
<stop offset="1" stop-color="#C837AB"/>
</radialGradient>
<radialGradient id="paint1_radial_58_64" cx="0" cy="0" r="1" gradientUnits="userSpaceOnUse" gradientTransform="translate(-7.14683 3.40748) rotate(78.681) scale(18.902 77.9147)">
<stop stop-color="#3771C8"/>
<stop offset="0.128" stop-color="#3771C8"/>
<stop offset="1" stop-color="#6600FF" stop-opacity="0"/>
</radialGradient>
<clipPath id="clip0_58_64">
<rect width="42.6667" height="42.6667" fill="white" transform="translate(0 0.333496)"/>
</clipPath>
</defs>
</svg>
