<svg width="43" height="43" viewBox="0 0 43 43" fill="none" xmlns="http://www.w3.org/2000/svg">
<g clip-path="url(#clip0_58_69)">
<path d="M32.6667 0H10C4.47715 0 0 4.47715 0 10V32.6667C0 38.1895 4.47715 42.6667 10 42.6667H32.6667C38.1895 42.6667 42.6667 38.1895 42.6667 32.6667V10C42.6667 4.47715 38.1895 0 32.6667 0Z" fill="white"/>
<path d="M32.6667 0H10C4.47715 0 0 4.47715 0 10V32.6667C0 38.1895 4.47715 42.6667 10 42.6667H32.6667C38.1895 42.6667 42.6667 38.1895 42.6667 32.6667V10C42.6667 4.47715 38.1895 0 32.6667 0Z" fill="#0A66C2"/>
<path d="M30.786 36.281H35.6643C35.8411 36.281 36.0107 36.2108 36.1357 36.0858C36.2607 35.9608 36.331 35.7913 36.331 35.6145L36.3335 25.3075C36.3335 19.9203 35.1727 15.7795 28.8772 15.7795C26.484 15.6905 24.2272 16.9242 23.0093 18.9842C23.0034 18.9942 22.9943 19.002 22.9835 19.0063C22.9727 19.0107 22.9608 19.0114 22.9496 19.0084C22.9383 19.0053 22.9284 18.9987 22.9213 18.9895C22.9142 18.9803 22.9103 18.969 22.9102 18.9573V16.9435C22.9102 16.7667 22.8399 16.5971 22.7149 16.4721C22.5899 16.3471 22.4203 16.2768 22.2435 16.2768H17.614C17.4372 16.2768 17.2676 16.3471 17.1426 16.4721C17.0176 16.5971 16.9473 16.7667 16.9473 16.9435V35.6135C16.9473 35.7903 17.0176 35.9599 17.1426 36.0849C17.2676 36.2099 17.4372 36.2802 17.614 36.2802H22.492C22.6688 36.2802 22.8384 36.2099 22.9634 36.0849C23.0884 35.9599 23.1587 35.7903 23.1587 35.6135V26.3847C23.1587 23.7752 23.6537 21.248 26.8888 21.248C30.078 21.248 30.1193 24.234 30.1193 26.5537V35.6143C30.1193 35.7911 30.1896 35.9607 30.3146 36.0857C30.4396 36.2108 30.6092 36.281 30.786 36.281ZM6.3335 9.93816C6.3335 11.9155 7.96133 13.5425 9.93883 13.5425C11.9158 13.5423 13.5427 11.9143 13.5427 9.93733C13.5423 7.96033 11.9153 6.3335 9.93816 6.3335C7.9605 6.3335 6.3335 7.96083 6.3335 9.93816ZM7.49333 36.281H12.3778C12.5546 36.281 12.7242 36.2108 12.8492 36.0857C12.9743 35.9607 13.0445 35.7911 13.0445 35.6143V16.9435C13.0445 16.7667 12.9743 16.5971 12.8492 16.4721C12.7242 16.3471 12.5546 16.2768 12.3778 16.2768H7.49333C7.31652 16.2768 7.14695 16.3471 7.02192 16.4721C6.8969 16.5971 6.82666 16.7667 6.82666 16.9435V35.6143C6.82666 35.7911 6.8969 35.9607 7.02192 36.0857C7.14695 36.2108 7.31652 36.281 7.49333 36.281Z" fill="white"/>
</g>
<defs>
<clipPath id="clip0_58_69">
<rect width="42.6667" height="42.6667" fill="white"/>
</clipPath>
</defs>
</svg>
