<svg width="43" height="44" viewBox="0 0 43 44" fill="none" xmlns="http://www.w3.org/2000/svg">
<g clip-path="url(#clip0_58_60)">
<path d="M0.910436 22.3417C0.909436 25.9266 1.85344 29.4269 3.64844 32.5121L0.73877 43.0534L11.6108 40.2249C14.6178 41.8492 17.987 42.7003 21.4108 42.7005H21.4198C32.7223 42.7005 41.9228 33.5747 41.9276 22.3578C41.9298 16.9224 39.7984 11.8113 35.9261 7.96606C32.0544 4.1211 26.9053 2.00248 21.4189 2C10.1151 2 0.91527 11.1254 0.910603 22.3417" fill="url(#paint0_linear_58_60)"/>
<path d="M0.178333 21.7384C0.177167 25.4522 1.155 29.0777 3.014 32.2734L0 43.1926L11.2618 40.2626C14.3648 41.9414 17.8585 42.8265 21.4135 42.8278H21.4227C33.1307 42.8278 42.6617 33.3736 42.6667 21.7552C42.6687 16.1246 40.4607 10.8298 36.45 6.84671C32.4388 2.86416 27.1055 0.669307 21.4227 0.666992C9.71267 0.666992 0.183 10.1198 0.178333 21.7384ZM6.88517 31.723L6.46467 31.0607C4.697 28.2718 3.764 25.049 3.76533 21.7397C3.769 12.0826 11.6897 4.22586 21.4293 4.22586C26.146 4.22784 30.5787 6.05225 33.9127 9.36239C37.2465 12.6729 39.081 17.0735 39.0798 21.7539C39.0755 31.411 31.1547 39.2687 21.4227 39.2687H21.4157C18.2468 39.2671 15.139 38.4227 12.4287 36.827L11.7837 36.4475L5.10067 38.186L6.88517 31.723Z" fill="url(#paint1_linear_58_60)"/>
<path d="M16.1129 13.5893C15.7153 12.7123 15.2968 12.6946 14.9186 12.6792C14.6089 12.666 14.2549 12.667 13.9013 12.667C13.5473 12.667 12.9721 12.7991 12.4859 13.3259C11.9993 13.8531 10.6279 15.1271 10.6279 17.7184C10.6279 20.3096 12.5301 22.8141 12.7953 23.1658C13.0608 23.5169 16.4674 29.0047 21.8628 31.1159C26.3468 32.8703 27.2593 32.5214 28.2324 32.4334C29.2058 32.3458 31.3731 31.1597 31.8153 29.9298C32.2578 28.7001 32.2578 27.646 32.1251 27.4257C31.9924 27.2063 31.6384 27.0745 31.1076 26.8112C30.5768 26.5479 27.9669 25.2735 27.4804 25.0977C26.9938 24.9221 26.6399 24.8345 26.2859 25.3618C25.9319 25.8884 24.9154 27.0745 24.6056 27.4257C24.2961 27.7778 23.9863 27.8216 23.4556 27.5582C22.9244 27.2939 21.2149 26.7384 19.1868 24.9443C17.6088 23.5482 16.5434 21.8241 16.2338 21.2968C15.9241 20.7702 16.2006 20.4848 16.4668 20.2223C16.7053 19.9863 16.9978 19.6073 17.2634 19.2999C17.5281 18.9923 17.6164 18.7728 17.7934 18.4216C17.9706 18.07 17.8819 17.7624 17.7494 17.4989C17.6164 17.2355 16.5849 14.6307 16.1129 13.5893Z" fill="white"/>
</g>
<defs>
<linearGradient id="paint0_linear_58_60" x1="2060.18" y1="4107.34" x2="2060.18" y2="2" gradientUnits="userSpaceOnUse">
<stop stop-color="#1FAF38"/>
<stop offset="1" stop-color="#60D669"/>
</linearGradient>
<linearGradient id="paint1_linear_58_60" x1="2133.33" y1="4253.23" x2="2133.33" y2="0.666992" gradientUnits="userSpaceOnUse">
<stop stop-color="#F9F9F9"/>
<stop offset="1" stop-color="white"/>
</linearGradient>
<clipPath id="clip0_58_60">
<rect width="42.6667" height="42.6667" fill="white" transform="translate(0 0.666504)"/>
</clipPath>
</defs>
</svg>
