<?xml version="1.0" encoding="UTF-8"?>
<svg version="1.1" xmlns="http://www.w3.org/2000/svg" width="225" height="225">
<path d="M0 0 C0.80419373 -0.00807175 1.60838745 -0.01614349 2.43695068 -0.02445984 C4.1417017 -0.03830173 5.84648045 -0.04902342 7.55126953 -0.05688477 C10.14800244 -0.07406085 12.74344976 -0.11793959 15.33984375 -0.16210938 C16.99738648 -0.1722398 18.65494003 -0.18075481 20.3125 -0.1875 C21.47063202 -0.21376213 21.47063202 -0.21376213 22.65216064 -0.24055481 C27.86510571 -0.21977314 30.80071733 0.77980513 34.921875 4.23828125 C41.48248214 11.51138668 40.21383741 24.3206137 40.16479492 33.56762695 C40.16669327 34.72400665 40.16859161 35.88038635 40.17054749 37.07180786 C40.17421857 40.85263088 40.1636002 44.63325687 40.15234375 48.4140625 C40.15114934 51.07000509 40.15064874 53.72593972 40.1509552 56.38188171 C40.15002311 61.93356715 40.14140407 67.48519743 40.12768555 73.03686523 C40.11198835 79.41191412 40.10668698 85.78690266 40.1074211 92.16196948 C40.10803647 98.34546241 40.10288351 104.52893619 40.09462929 110.71242332 C40.09147141 113.3200284 40.08948204 115.9276352 40.08873558 118.53524208 C40.07477034 141.82304183 40.07477034 141.82304183 39.59887695 151.58666992 C39.51413872 153.3365345 39.51413872 153.3365345 39.4276886 155.12174988 C38.63975297 159.97655434 37.00610925 163.25982595 33.359375 166.55078125 C27.38049998 170.69000242 19.9767317 169.57918939 12.92016602 169.64331055 C11.13839287 169.66485185 9.35672443 169.69890913 7.57543945 169.74584961 C4.99903382 169.81310181 2.42481771 169.84035102 -0.15234375 169.859375 C-0.94114426 169.88720566 -1.72994476 169.91503632 -2.54264832 169.94371033 C-7.89062624 169.92402618 -10.70647818 168.59409932 -14.6653595 165.01722717 C-17.84159868 161.01772568 -18.32925504 157.09047654 -18.33882141 152.09669495 C-18.34944862 150.24407043 -18.34944862 150.24407043 -18.36029053 148.35401917 C-18.35799692 146.99325525 -18.35548725 145.63249168 -18.3527832 144.27172852 C-18.35713247 142.83246598 -18.36231633 141.39320576 -18.36827087 139.95394897 C-18.3816488 136.05104796 -18.38224092 132.14824385 -18.37970757 128.24532437 C-18.37863709 124.98488046 -18.3835232 121.7244561 -18.388313 118.46401638 C-18.39940392 110.77116203 -18.39984786 103.07835652 -18.39379883 95.38549805 C-18.38775793 87.45394003 -18.40007389 79.52255937 -18.4213689 71.59103161 C-18.43899115 64.77644457 -18.44498529 57.96191394 -18.44173115 51.14730495 C-18.43991921 47.07936622 -18.44254558 43.01155401 -18.45644569 38.94363594 C-18.4690297 35.11782134 -18.46707468 31.29228303 -18.45403481 27.46647263 C-18.45167074 26.06445026 -18.45439766 24.66240842 -18.46265793 23.2604084 C-18.47314038 21.34258157 -18.46321375 19.42467589 -18.4523468 17.5068512 C-18.45251454 16.4348475 -18.45268229 15.3628438 -18.45285511 14.25835514 C-17.85104264 9.40814939 -16.12532399 6.18331449 -12.515625 2.92578125 C-8.30261723 0.00908356 -5.00022098 0.047343 0 0 Z " fill="#5081BF" transform="translate(102.078125,27.76171875)"/>
<path d="M0 0 C0.77396622 -0.00524185 1.54793243 -0.0104837 2.34535217 -0.0158844 C3.97493292 -0.02227982 5.60455998 -0.02099985 7.23413086 -0.01245117 C9.71227116 -0.00394191 12.1881026 -0.0327323 14.66601562 -0.06445312 C16.25650973 -0.06606556 17.84700788 -0.06548679 19.4375 -0.0625 C20.5362571 -0.07935097 20.5362571 -0.07935097 21.6572113 -0.09654236 C26.88005056 -0.02663433 30.77513577 0.98209009 34.78515625 4.43359375 C38.309952 9.5854909 39.4135248 14.53890855 39.53393555 20.67919922 C39.57701985 21.84071408 39.57701985 21.84071408 39.62097454 23.02569389 C39.70203332 25.49518728 39.74986462 27.96304303 39.78515625 30.43359375 C39.79671879 31.23077065 39.80828133 32.02794754 39.82019424 32.84928131 C39.88713007 38.73483918 39.85596806 44.61835149 39.8046875 50.50390625 C39.79773046 51.41518154 39.79077343 52.32645683 39.78360558 53.26534653 C39.7466435 58.06630007 39.70286248 62.86713167 39.65307617 67.66796875 C39.60329091 72.59906577 39.57739231 77.52999781 39.55664539 82.46129036 C39.53625641 86.28769414 39.49838688 90.11378364 39.45578575 93.93999863 C39.43853455 95.75870664 39.42777116 97.577489 39.42383766 99.39627457 C39.41672477 101.93419004 39.38474852 104.47068184 39.34692383 107.00830078 C39.35211281 108.11495842 39.35211281 108.11495842 39.35740662 109.24397278 C39.23845973 114.66689764 37.78420373 118.89408433 34.78515625 123.43359375 C30.09123214 127.7109575 26.1470738 128.02752717 20.09765625 127.96484375 C19.27692627 127.96867065 18.45619629 127.97249756 17.6105957 127.97644043 C15.88263719 127.9791514 14.15463708 127.97184739 12.42675781 127.95507812 C9.79268275 127.93365496 7.16133471 127.95490557 4.52734375 127.98046875 C2.84244194 127.97782533 1.15754182 127.97270004 -0.52734375 127.96484375 C-1.30875732 127.97294067 -2.0901709 127.9810376 -2.89526367 127.98937988 C-8.09506971 127.90089781 -11.14392645 126.94227948 -15.21484375 123.43359375 C-19.11844313 118.70279348 -18.64539161 113.79287449 -18.61889648 107.95532227 C-18.62575974 106.9010907 -18.63262299 105.84685913 -18.63969421 104.76068115 C-18.65798685 101.27781687 -18.65412105 97.79540199 -18.6484375 94.3125 C-18.6529981 91.89021152 -18.6583033 89.46792434 -18.6643219 87.04563904 C-18.67325787 81.96909325 -18.67082421 76.89270474 -18.66088867 71.81616211 C-18.64939851 65.31151232 -18.6696094 58.80740535 -18.69880581 52.30282688 C-18.71715419 47.3005173 -18.71687801 42.29833812 -18.71116829 37.29600334 C-18.71101491 34.89782894 -18.71707296 32.49964579 -18.72945976 30.10150337 C-18.74434157 26.74774269 -18.73371223 23.39498899 -18.71655273 20.04125977 C-18.7262207 19.05145615 -18.73588867 18.06165253 -18.74584961 17.04185486 C-18.68323664 11.19599044 -18.10138753 7.88837681 -14.21484375 3.43359375 C-9.62624733 0.33509377 -5.39664889 -0.02156839 0 0 Z " fill="#FED403" transform="translate(18.21484375,69.56640625)"/>
<path d="M0 0 C0.75980164 -0.00570007 1.51960327 -0.01140015 2.3024292 -0.01727295 C3.91303107 -0.02672692 5.52365233 -0.03325851 7.13427734 -0.03710938 C9.58596132 -0.04678262 12.03679527 -0.0777875 14.48828125 -0.109375 C16.05468253 -0.11590852 17.6210898 -0.12115762 19.1875 -0.125 C19.91584045 -0.1373468 20.64418091 -0.1496936 21.39459229 -0.16241455 C26.13458865 -0.14191177 29.33723104 0.69916515 33.359375 3.203125 C37.79403739 8.11721035 38.51842942 11.19689985 38.58398438 17.64697266 C38.60106949 18.79856369 38.60106949 18.79856369 38.61849976 19.97341919 C38.72923343 28.01318493 38.77659949 36.05387052 38.81933594 44.09423828 C38.84159024 47.90654653 38.88332524 51.71787261 38.94238281 55.52978516 C39.01360202 60.13579803 39.05018741 64.74088835 39.06245422 69.34742355 C39.07283452 71.09931027 39.09521074 72.85117024 39.13005066 74.60274124 C39.42085361 90.02377029 39.42085361 90.02377029 35.00195312 95.27880859 C28.961361 100.9041425 20.45228317 99.4989129 12.70947266 99.55322266 C10.9830983 99.56975695 9.2567917 99.59701389 7.53076172 99.63525391 C5.03056647 99.6903032 2.53197141 99.71193858 0.03125 99.7265625 C-0.73253967 99.74923187 -1.49632935 99.77190125 -2.28326416 99.79525757 C-7.13153669 99.77634354 -10.16244781 98.75158274 -14.12127686 95.96206665 C-18.3577039 91.05757652 -19.01725201 85.90721326 -19.02880859 79.61889648 C-19.03406555 78.89599426 -19.03932251 78.17309204 -19.04473877 77.42828369 C-19.05784637 75.06003642 -19.04923502 72.69247179 -19.0390625 70.32421875 C-19.04108568 68.66707735 -19.04399915 67.00993683 -19.04776001 65.35279846 C-19.05217064 61.8888395 -19.04579233 58.42511343 -19.03173828 54.96118164 C-19.01463361 50.53046129 -19.02450348 46.10028569 -19.04245567 41.66958523 C-19.05331629 38.25083846 -19.04983698 34.83222003 -19.0420723 31.41346931 C-19.04007728 29.78005979 -19.04250495 28.14663844 -19.04951096 26.51324272 C-19.05716472 24.22783573 -19.04546803 21.9433013 -19.02880859 19.65795898 C-19.02642181 18.36002914 -19.02403503 17.0620993 -19.02157593 15.72483826 C-18.53853967 11.25939381 -17.18847215 7.86125133 -14.10546875 4.55859375 C-9.05661809 0.69770795 -6.2424668 0.03602441 0 0 Z " fill="#AD100C" transform="translate(186.640625,97.796875)"/>
<path d="M0 0 C0.76691666 -0.00095673 1.53383331 -0.00191345 2.32398987 -0.00289917 C3.94719525 -0.00358012 5.57040335 -0.00173176 7.19360352 0.00244141 C9.6779595 0.00778359 12.16213409 0.00249735 14.64648438 -0.00390625 C16.22265665 -0.00324531 17.79882881 -0.00196382 19.375 0 C20.11882431 -0.00202423 20.86264862 -0.00404846 21.62901306 -0.00613403 C24.7737146 0.00814835 27.24772666 0.13075264 30.25390625 1.1328125 C30.25390625 1.7928125 30.25390625 2.4528125 30.25390625 3.1328125 C29.14354004 3.12233887 28.03317383 3.11186523 26.88916016 3.10107422 C22.77802746 3.06493301 18.66690886 3.04193354 14.55566406 3.02294922 C12.77471558 3.01287819 10.99378368 2.99922065 9.21289062 2.98193359 C6.65620842 2.95773337 4.0997444 2.94634066 1.54296875 2.9375 C0.74396149 2.92717743 -0.05504578 2.91685486 -0.87826538 2.90621948 C-2.83566595 2.90582024 -4.79252452 3.01040181 -6.74609375 3.1328125 C-7.40609375 3.7928125 -8.06609375 4.4528125 -8.74609375 5.1328125 C-8.41609375 6.1228125 -8.08609375 7.1128125 -7.74609375 8.1328125 C-8.73609375 8.1328125 -9.72609375 8.1328125 -10.74609375 8.1328125 C-10.74609375 7.4728125 -10.74609375 6.8128125 -10.74609375 6.1328125 C-12.06609375 6.4628125 -13.38609375 6.7928125 -14.74609375 7.1328125 C-15.07609375 33.5328125 -15.40609375 59.9328125 -15.74609375 87.1328125 C-16.73609375 87.1328125 -17.72609375 87.1328125 -18.74609375 87.1328125 C-18.8156774 77.4576876 -18.86894743 67.78264917 -18.90153027 58.10732841 C-18.91717028 53.61443096 -18.93837808 49.12170501 -18.97241211 44.62890625 C-19.00506504 40.29116256 -19.02295928 35.9535836 -19.03072548 31.61572647 C-19.03625835 29.96275363 -19.04706276 28.30978956 -19.06328392 26.65688705 C-19.08513746 24.33730504 -19.08805743 22.01839926 -19.08666992 19.69873047 C-19.09333176 18.37968719 -19.09999359 17.06064392 -19.1068573 15.70162964 C-18.65181597 11.20017907 -17.3158958 7.81445795 -14.2109375 4.48828125 C-9.10933969 0.5870594 -6.30561656 -0.01711343 0 0 Z " fill="#B55151" transform="translate(186.74609375,97.8671875)"/>
<path d="M0 0 C0.99 0.495 0.99 0.495 2 1 C3.47120176 8.47849646 3.14392849 16.41835035 3.12939453 24.01049805 C3.13114685 25.15683212 3.13289917 26.3031662 3.13470459 27.48423767 C3.13907638 31.24341381 3.13620064 35.0025422 3.1328125 38.76171875 C3.13348711 41.39809681 3.13445845 44.03447481 3.13571167 46.67085266 C3.13752455 52.18739326 3.13515163 57.70392043 3.13037109 63.22045898 C3.12494371 69.55570042 3.1266836 75.89090958 3.1321975 82.22615021 C3.13732401 88.36692008 3.1367279 94.50767591 3.13381577 100.64844704 C3.13315365 103.23930682 3.13394961 105.83016743 3.13629532 108.42102623 C3.1589914 140.54465712 3.1589914 140.54465712 2 148 C1.34 148.33 0.68 148.66 0 149 C0 99.83 0 50.66 0 0 Z " fill="#7996C4" transform="translate(139,38)"/>
<path d="M0 0 C3.64788947 3.64788947 3.30875504 8.05488152 3.5612793 12.93310547 C3.60353732 13.73000731 3.64579535 14.52690914 3.68933392 15.34795952 C4.13560115 24.58941537 4.10012073 33.8209241 4.01953125 43.0703125 C4.0090957 44.43722544 4.0090957 44.43722544 3.99844933 45.83175278 C3.96148725 50.63270632 3.91770623 55.43353792 3.86791992 60.234375 C3.81813466 65.16547202 3.79223606 70.09640406 3.77148914 75.02769661 C3.75110016 78.85410039 3.71323063 82.68018989 3.6706295 86.50640488 C3.6533783 88.32511289 3.64261491 90.14389525 3.63868141 91.96268082 C3.63156852 94.50059629 3.59959227 97.03708809 3.56176758 99.57470703 C3.5652269 100.31247879 3.56868622 101.05025055 3.57225037 101.81037903 C3.45622267 107.10021468 2.23531131 111.71755973 -1 116 C-3.1384306 117.2249012 -3.1384306 117.2249012 -5 118 C-4.67 116.68 -4.34 115.36 -4 114 C-3.34 114.33 -2.68 114.66 -2 115 C-1.67 112.69 -1.34 110.38 -1 108 C-0.34 108 0.32 108 1 108 C0.67 72.36 0.34 36.72 0 0 Z " fill="#F8E478" transform="translate(54,77)"/>
<path d="M0 0 C4.14577275 -0.05863894 8.29143705 -0.09380984 12.4375 -0.125 C14.18450195 -0.15013672 14.18450195 -0.15013672 15.96679688 -0.17578125 C22.60947403 -0.21320478 28.65683528 -0.08596317 35 2 C36.23608398 4.07763672 36.23608398 4.07763672 37 6 C34.5625 5.625 34.5625 5.625 32 5 C31.67 4.34 31.34 3.68 31 3 C24.18422827 1.95301981 17.32132263 1.71540416 10.4375 1.4375 C9.42880859 1.39431641 8.42011719 1.35113281 7.38085938 1.30664062 C4.92067425 1.20170382 2.46040825 1.09954299 0 1 C0 0.67 0 0.34 0 0 Z " fill="#F7D634" transform="translate(17,71)"/>
<path d="M0 0 C0.99 0.33 1.98 0.66 3 1 C2.01 2.485 2.01 2.485 1 4 C1.33 4.99 1.66 5.98 2 7 C1.01 7 0.02 7 -1 7 C-1 6.34 -1 5.68 -1 5 C-2.32 5.33 -3.64 5.66 -5 6 C-5.33 8.31 -5.66 10.62 -6 13 C-6.66 12.67 -7.32 12.34 -8 12 C-7.92426671 8.81920181 -7.58507402 6.68133298 -5.48046875 4.23046875 C-2.06086289 1.15642307 -2.06086289 1.15642307 0 0 Z " fill="#A62E2D" transform="translate(177,99)"/>
<path d="M0 0 C0.33 0 0.66 0 1 0 C1.50227431 5.27388024 0.32894202 7.91015695 -3 12 C-3.99 12.33 -4.98 12.66 -6 13 C-5.67 11.68 -5.34 10.36 -5 9 C-4.34 9.33 -3.68 9.66 -3 10 C-2.67 7.69 -2.34 5.38 -2 3 C-1.34 3 -0.68 3 0 3 C0 2.01 0 1.02 0 0 Z " fill="#F3DC45" transform="translate(55,182)"/>
<path d="M0 0 C-0.33 0.99 -0.66 1.98 -1 3 C-1.66 3 -2.32 3 -3 3 C-3.33 3.99 -3.66 4.98 -4 6 C-5.4375 7.6875 -5.4375 7.6875 -7 9 C-7.66 9 -8.32 9 -9 9 C-7.67183131 4.6532661 -5.0855272 0 0 0 Z " fill="#7594C0" transform="translate(94,29)"/>
<path d="" fill="#FFFFFF" transform="translate(0,0)"/>
<path d="" fill="#FFFFFF" transform="translate(0,0)"/>
<path d="" fill="#FFFFFF" transform="translate(0,0)"/>
<path d="" fill="#FFFFFF" transform="translate(0,0)"/>
<path d="" fill="#FFFFFF" transform="translate(0,0)"/>
<path d="" fill="#FFFFFF" transform="translate(0,0)"/>
<path d="" fill="#FFFFFF" transform="translate(0,0)"/>
<path d="" fill="#FFFFFF" transform="translate(0,0)"/>
<path d="" fill="#FFFFFF" transform="translate(0,0)"/>
<path d="" fill="#FFFFFF" transform="translate(0,0)"/>
<path d="" fill="#FFFFFF" transform="translate(0,0)"/>
<path d="" fill="#FFFFFF" transform="translate(0,0)"/>
<path d="" fill="#FFFFFF" transform="translate(0,0)"/>
<path d="" fill="#FFFFFF" transform="translate(0,0)"/>
<path d="" fill="#FFFFFF" transform="translate(0,0)"/>
<path d="" fill="#FFFFFF" transform="translate(0,0)"/>
<path d="" fill="#FFFFFF" transform="translate(0,0)"/>
<path d="" fill="#FFFFFF" transform="translate(0,0)"/>
<path d="" fill="#FFFFFF" transform="translate(0,0)"/>
<path d="" fill="#FFFFFF" transform="translate(0,0)"/>
<path d="" fill="#FFFFFF" transform="translate(0,0)"/>
<path d="" fill="#FFFFFF" transform="translate(0,0)"/>
<path d="" fill="#FFFFFF" transform="translate(0,0)"/>
<path d="" fill="#FFFFFF" transform="translate(0,0)"/>
<path d="" fill="#FFFFFF" transform="translate(0,0)"/>
<path d="" fill="#FFFFFF" transform="translate(0,0)"/>
<path d="" fill="#FFFFFF" transform="translate(0,0)"/>
<path d="" fill="#FFFFFF" transform="translate(0,0)"/>
<path d="" fill="#FFFFFF" transform="translate(0,0)"/>
<path d="" fill="#FFFFFF" transform="translate(0,0)"/>
<path d="" fill="#FFFFFF" transform="translate(0,0)"/>
<path d="" fill="#FFFFFF" transform="translate(0,0)"/>
<path d="" fill="#FFFFFF" transform="translate(0,0)"/>
<path d="" fill="#FFFFFF" transform="translate(0,0)"/>
<path d="" fill="#FFFFFF" transform="translate(0,0)"/>
<path d="" fill="#FFFFFF" transform="translate(0,0)"/>
<path d="" fill="#FFFFFF" transform="translate(0,0)"/>
</svg>
